<?xml version="1.0" standalone="no"?>
<!DOCTYPE svg PUBLIC "-//W3C//DTD SVG 20010904//EN"
 "http://www.w3.org/TR/2001/REC-SVG-20010904/DTD/svg10.dtd">
<svg version="1.0" xmlns="http://www.w3.org/2000/svg"
 width="1349.000000pt" height="1349.000000pt" viewBox="0 0 1349.000000 1349.000000"
 preserveAspectRatio="xMidYMid meet">

<g transform="translate(0.000000,1349.000000) scale(0.100000,-0.100000)"
fill="#000000" stroke="none">
<path d="M2945 11759 c-1139 -36 -2003 -370 -2425 -940 -363 -490 -405 -1120
-123 -1834 166 -421 444 -868 815 -1312 65 -78 123 -145 128 -148 5 -3 -29 49
-75 115 -220 317 -398 665 -499 975 -130 400 -143 806 -36 1135 124 380 401
695 811 923 449 249 1160 396 1914 397 619 0 1378 -100 2111 -280 2580 -631
5138 -2197 6329 -3875 335 -472 537 -918 621 -1375 28 -147 25 -481 -4 -616
-28 -132 -64 -237 -118 -353 -272 -580 -961 -971 -1924 -1091 -85 -11 -171
-21 -190 -24 -19 -2 78 -3 215 0 1457 23 2453 524 2734 1373 58 175 75 293 76
511 0 206 -10 302 -51 480 -135 584 -482 1193 -1057 1855 -158 182 -570 594
-767 767 -1045 919 -2352 1718 -3805 2325 -1422 593 -2929 956 -4105 988 -102
3 -219 7 -260 8 -41 2 -183 0 -315 -4z"/>
<path d="M3245 10643 c-809 -37 -1444 -255 -1815 -624 -84 -83 -111 -117 -175
-214 -120 -183 -192 -381 -219 -605 l-6 -45 27 35 c140 179 374 365 609 483
691 346 1646 452 2804 312 859 -105 1940 -401 2753 -754 26 -11 47 -18 47 -14
0 3 6 1 13 -5 7 -6 90 -45 185 -86 95 -42 181 -81 190 -86 9 -5 117 -59 239
-119 581 -288 1072 -588 1548 -944 170 -128 407 -320 490 -398 28 -26 73 -66
100 -89 88 -73 396 -391 507 -522 429 -508 677 -963 775 -1427 24 -112 27
-148 27 -331 1 -214 -8 -281 -56 -440 -63 -208 -191 -413 -359 -577 -253 -248
-588 -429 -1009 -546 -185 -51 -220 -59 -220 -53 0 5 -253 1728 -295 2006 -30
203 -65 443 -150 1020 -90 608 -93 626 -115 670 -52 103 -128 74 -204 -79 -24
-47 -407 -849 -851 -1781 -444 -932 -815 -1710 -824 -1728 l-17 -33 -302 623
c-165 343 -346 715 -400 828 -55 113 -235 486 -402 830 -166 344 -333 688
-370 765 -267 556 -304 619 -367 631 -44 9 -86 -34 -107 -107 -8 -30 -74 -443
-146 -919 -516 -3407 -497 -3288 -526 -3386 -32 -111 -64 -172 -112 -216 -44
-40 -77 -53 -176 -68 -123 -19 -160 -46 -117 -84 24 -21 142 -39 196 -30 22 4
261 8 530 8 528 1 546 3 553 53 5 32 -32 51 -134 69 -49 8 -107 23 -129 33
-46 20 -102 79 -111 118 -14 55 7 332 50 653 25 184 97 736 161 1225 63 490
118 900 120 913 8 34 24 27 44 -20 10 -24 94 -203 186 -398 92 -195 200 -425
240 -510 40 -85 89 -191 110 -235 21 -44 60 -129 87 -190 90 -201 700 -1393
806 -1574 65 -111 92 -141 128 -141 37 0 74 43 135 163 29 56 364 750 745
1542 380 792 698 1441 706 1443 11 2 51 -273 201 -1375 103 -758 191 -1401
194 -1429 9 -79 -13 -181 -48 -232 -39 -54 -36 -83 11 -98 24 -8 209 -13 585
-14 303 -2 588 -4 635 -4 67 -1 92 3 113 17 30 19 36 57 13 76 -7 6 -66 22
-131 36 -64 13 -140 32 -168 41 -192 63 -255 214 -332 790 l-7 52 64 7 c274
29 616 100 853 176 766 246 1235 679 1372 1269 30 133 42 379 24 526 -64 524
-327 1053 -819 1648 -167 201 -534 573 -712 721 -25 21 -47 41 -50 44 -28 41
-589 475 -770 597 -25 17 -89 61 -142 97 -53 37 -99 67 -102 67 -3 0 -33 20
-68 44 -103 71 -558 346 -574 346 -2 0 -25 13 -51 29 -113 69 -557 296 -806
412 -1379 642 -2865 1037 -4167 1109 -170 9 -363 10 -515 3z"/>
<path d="M3716 9613 c-4 -4 -325 -7 -714 -8 -616 0 -711 -2 -737 -15 -56 -29
-26 -75 54 -85 174 -22 244 -48 301 -113 53 -59 69 -117 81 -284 14 -194 6
-3491 -9 -3618 -27 -226 -66 -343 -130 -386 -19 -13 -70 -29 -124 -39 -121
-22 -159 -54 -105 -89 45 -30 139 -35 452 -25 203 7 422 7 653 0 353 -10 507
-4 558 20 32 16 43 49 21 67 -8 7 -77 19 -153 27 -77 8 -160 21 -184 30 -81
29 -128 92 -154 207 -38 168 -40 225 -43 2124 l-4 1852 23 26 c31 36 124 50
293 43 247 -10 433 -89 614 -262 179 -172 289 -398 326 -675 53 -386 -41 -723
-267 -965 -172 -184 -339 -269 -562 -284 -133 -9 -156 -19 -156 -65 0 -53 33
-61 225 -60 293 2 523 60 761 189 359 196 615 546 705 963 30 141 38 418 15
533 -34 169 -141 383 -255 511 -105 118 -328 249 -516 303 -113 32 -277 61
-425 75 -130 11 -533 14 -544 3z"/>
</g>
</svg>
